PathFileType	4	(X/Y/Z)	pose_F01_0-96.trc
DataRate	CameraRate	NumFrames	NumMarkers	Units	OrigDataRate	OrigDataStartFrame	OrigNumFrames
30	30	9	21	m	30	84	96
Frame#	Time	CHip			RHip			RKnee			RAnkle			RBigToe			RSmallToe			RHeel			LHip			LKnee			LAnkle			LBigToe			LSmallToe			LHeel			Neck			Nose			RShoulder			RElbow			RWrist			LShoulder			LElbow			LWrist			
		X1	Y1	Z1	X2	Y2	Z2	X3	Y3	Z3	X4	Y4	Z4	X5	Y5	Z5	X6	Y6	Z6	X7	Y7	Z7	X8	Y8	Z8	X9	Y9	Z9	X10	Y10	Z10	X11	Y11	Z11	X12	Y12	Z12	X13	Y13	Z13	X14	Y14	Z14	X15	Y15	Z15	X16	Y16	Z16	X17	Y17	Z17	X18	Y18	Z18	X19	Y19	Z19	X20	Y20	Z20	X21	Y21	Z21	
84	2.8	-0.19039477778987635	1.8871349791553427	-0.5171929743002686	-0.19687069591482756	1.883947330547935	-0.4566115578040395	-0.1907178190481121	1.7452171371530592	-0.45733679999676524	-0.18351243250762442	1.6055070607385031	-0.4698677674171494	-0.21342009193569117	1.5688942217603625	-0.4333761503241547	-0.20674525106740996	1.5759693143232287	-0.4138411452108352	-0.18082402857021918	1.5940584075098203	-0.4846832785385745	-0.18192246246514718	1.8912971920440549	-0.57435240663467	-0.1922186414124737	1.7502785730227788	-0.5670275984144931	-0.1836052712927941	1.5987918797420655	-0.5751031086900017	-0.20680764969665932	1.5480135607808814	-0.563073444744696	-0.20078044932020606	1.5536455947482715	-0.5868368915150521	-0.17674840708338593	1.5892084513745055	-0.5678713779612907	-0.17980432581923508	2.0411354170508402	-0.529520006223383	-0.19918609554742686	2.107121571465462	-0.5230069895723403	-0.19049094827185625	2.0371341169581316	-0.4405311526988956	-0.19238226625070848	1.9556266794433974	-0.40709937317684697	-0.221446167045701	1.9266747532491233	-0.31878127099718634	-0.16485560258569773	2.0465893148413477	-0.6207740626696725	-0.16240259889576222	1.966639005513744	-0.6423324620570744	-0.17989602544939126	1.8912772773446065	-0.6268292081322362
85	2.8333333333333335	-0.18757062352331322	1.8885012109472594	-0.516414253280534	-0.1940970565359633	1.8854373339678674	-0.455866208283825	-0.19082101977561752	1.7465821349057147	-0.4574254815713096	-0.1837215540533791	1.6068801973663047	-0.4697449256624599	-0.2166233405000614	1.566771725043374	-0.43411277664830644	-0.20853930054816183	1.5747235462792908	-0.4119277710458627	-0.18082184633690762	1.5942963812518658	-0.484771008460202	-0.17911556350134725	1.890206517939167	-0.5733282876476856	-0.1901911350455272	1.750379697015673	-0.5690948230293741	-0.1845061119006273	1.5987519059142041	-0.5784213280665005	-0.20703486999137066	1.5488933285287914	-0.5541210548858939	-0.20081640058874653	1.5536251818094864	-0.5867767452574003	-0.1767081547160137	1.58768174020277	-0.5761904508294452	-0.17977468370386812	2.041157912883762	-0.5295583497633797	-0.1991750301490393	2.107149117602879	-0.523024486209305	-0.19046425341385165	2.0358673745703593	-0.4400139149486535	-0.19332930525445152	1.9555328018711782	-0.40146163421178044	-0.21609692522742732	1.8948131474890428	-0.3095709722987643	-0.164801704076125	2.046572256617795	-0.6208311780610574	-0.16031472969232224	1.9666903151699107	-0.6445292263639347	-0.17856743605727768	1.8900880644720726	-0.6319316359267841
86	2.8666666666666667	-0.1894411947089174	1.8870267084086991	-0.5139330952135847	-0.19592998796817376	1.8838784491533862	-0.45326658111105594	-0.19086625822281109	1.7440433124799906	-0.4569765260430117	-0.18379765263154058	1.6041963660365934	-0.4694211101384803	-0.21637735904663963	1.567822850401162	-0.43470533796042893	-0.20864628680603275	1.5751638473000251	-0.412007132373035	-0.18119434641463422	1.5934622647658194	-0.4842229848913913	-0.17992727312573112	1.8888377735614408	-0.576092327168662	-0.189218603063144	1.7504139294584498	-0.5658857029980057	-0.18376810117301845	1.5974549225629886	-0.5745869192783464	-0.20698708598431523	1.5491836761785522	-0.5629550460802526	-0.2007635428580677	1.55366748293415	-0.5869503681473366	-0.17491526745829775	1.5879561503267685	-0.5695440635912088	-0.17980900157409452	2.041080185426918	-0.5294802684723104	-0.1991186528409491	2.108184348342232	-0.5228439922530677	-0.1924419680570555	2.036855595879157	-0.43826951699895583	-0.19406958976404123	1.9525308123543461	-0.3952613259437445	-0.20505860188483988	1.8802640604242993	-0.3374747031465443	-0.16391250682991437	2.045230937464563	-0.6174678854350397	-0.1590799762186503	1.9675617282531501	-0.6412921228116002	-0.17615665913373602	1.8900461895237066	-0.6341374953758389
87	2.9	-0.18939936334853516	1.889675877838769	-0.5144076374533257	-0.1959218689270801	1.8865034476162204	-0.4537644497610221	-0.1907187282559005	1.7453218801682104	-0.4574645675054525	-0.18349683198078987	1.6054262637574224	-0.4699785122051115	-0.21456595510325294	1.5692624865904303	-0.43663714182409763	-0.20687234349933065	1.5764207065451625	-0.41392242689755154	-0.18092880404451553	1.5949075197665772	-0.4847644075320318	-0.17993914359909946	1.8928682910928936	-0.5767383511526992	-0.18924828885165812	1.7504867902525216	-0.5658690414531942	-0.1824259497209727	1.598900745151076	-0.5804906966106188	-0.20504268074149706	1.5492838999012404	-0.5562389070219917	-0.20075037209891866	1.5536416835175593	-0.5867473043839373	-0.17673810725364247	1.5879577818389772	-0.5761983540732513	-0.18084761383706832	2.0409394398852063	-0.5243554960149703	-0.19817781605799842	2.109121064204146	-0.5196829172806042	-0.19334976236425364	2.0352597147038187	-0.43242832036585954	-0.19415326962126458	1.9529720855928514	-0.40387957743737013	-0.20101377334618625	1.877385867818617	-0.36508424461957595	-0.1639680953331597	2.046476052093569	-0.6178805655908544	-0.1592656248702826	1.9677659791188002	-0.6415762784409798	-0.17544633694392725	1.890264252991707	-0.6313324498203392
88	2.933333333333333	-0.1891870657611527	1.8909084695824676	-0.5144848835557619	-0.19573865119484493	1.8876843425287189	-0.45379052210027426	-0.19268719565766546	1.747787010396903	-0.4555965975868963	-0.18168372855351217	1.606979971380883	-0.47200652721767195	-0.21452388266046016	1.5688194414468333	-0.43657096736337136	-0.206829465550625	1.576156006438423	-0.4138527567809575	-0.17886936393304467	1.594716129432755	-0.4868977532539394	-0.17872865608602584	1.8951109508200759	-0.5740300999659416	-0.19101604039388256	1.7517076721894462	-0.5639137495762515	-0.1824155697745398	1.5989637719421235	-0.5805639245737495	-0.20568806803565545	1.5504804814562594	-0.5601522117118967	-0.1986409188462124	1.5538084289757972	-0.589080165582831	-0.17350831097060365	1.5895122938685549	-0.57572042024082	-0.18082393840517363	2.0410179654045213	-0.5243398693884289	-0.2000662047176453	2.109077107134982	-0.5174862953351191	-0.19324941322927672	2.037729057995905	-0.4328364245907022	-0.19385122322169462	1.9504105494517319	-0.40279831601191074	-0.20177630842812172	1.8750738378854064	-0.37712321670700844	-0.16398391028851447	2.046495942313968	-0.6178880454764164	-0.15941072012244809	1.9652571617736725	-0.6410334307165989	-0.17455333679417678	1.8900875436265163	-0.6279577290866885
89	2.966666666666667	-0.18626271091140179	1.889388327474277	-0.5131919651141736	-0.1957319770352644	1.8850149383205421	-0.45343159802305405	-0.19055152750124763	1.746391554709609	-0.4578014650776562	-0.1836945633988139	1.6041738213898467	-0.4693770385302091	-0.21344278160071664	1.5683563677923993	-0.43356311699653083	-0.20865587250271447	1.575364037423928	-0.4119600482007025	-0.17922399174234668	1.5937450848542873	-0.48628219062329203	-0.17867130986063956	1.8910120345072456	-0.5733008647208846	-0.19082157246909087	1.7529777915574087	-0.5643255020036996	-0.18076417397362687	1.599172003180191	-0.5820459070060682	-0.20481064894137382	1.5514376774055938	-0.5566471295750165	-0.19856010758865644	1.553765341188059	-0.5889523483940159	-0.1719344829642319	1.5878791989129961	-0.5767476999387982	-0.18170948636062098	2.0410563948595235	-0.5273732299632073	-0.1982345783822633	2.108087191352182	-0.5196852192528076	-0.19329712918505976	2.037679237158064	-0.4329492969889767	-0.1940082957767711	1.9526631590111787	-0.40369170454831277	-0.2041403611779034	1.8789985163733196	-0.3841814625177757	-0.16475868550309078	2.0453471674207453	-0.620441213336311	-0.16133815307011212	1.9661813656649103	-0.6388091274743722	-0.17526984206591037	1.8919358423646158	-0.6227576266061396
90	3.0	-0.18733318201192328	1.8897754947750687	-0.5167155568350906	-0.19373526493368784	1.887742768935061	-0.4562256824656618	-0.19088374722086382	1.746688135397407	-0.45742006519056255	-0.1836758511904391	1.6040706221905048	-0.46927939038183775	-0.21480961524838946	1.5678129501176998	-0.43601372262759075	-0.2085087254846772	1.5746565589504953	-0.4119005413826671	-0.18013252724295506	1.5934320966514253	-0.4808586723756954	-0.17780909890487961	1.8929675000800898	-0.5790824633424037	-0.1892016220939972	1.7504797226615938	-0.5658217637115369	-0.18350195134681485	1.5975795741842354	-0.5834040254899677	-0.2033459312590433	1.551523923541117	-0.5541832597564725	-0.19591527831818176	1.5565198822219088	-0.5923797094621225	-0.17346135455651224	1.5881223191837708	-0.5841620098034369	-0.17970912447998755	2.0411821155235392	-0.5295853978673516	-0.2001469716482665	2.108027287617437	-0.5176259150778592	-0.19134384513664282	2.037918876157362	-0.4352306601206757	-0.19213863291224573	1.9538679079279668	-0.4062361084567331	-0.20465067732782144	1.882401882937111	-0.3705359773549769	-0.16267763208922498	2.0453980067820274	-0.6226454749702797	-0.15725110173156157	1.9666530387252503	-0.6438271860508008	-0.1749517236260637	1.887681156105458	-0.6277112945994076
91	3.033333333333333	-0.18503662901197898	1.8881895452220787	-0.5184392955220927	-0.19347696690952879	1.884973167903	-0.4556757838313705	-0.19067198317506473	1.745267330504907	-0.4574221921206589	-0.18369151566621786	1.6069295106124313	-0.46972489681026836	-0.2127661591008972	1.570253675640844	-0.4388394064922415	-0.2069842497159266	1.5771295277174342	-0.4139390404007684	-0.1780155913563534	1.595116314367695	-0.48356226408918535	-0.177459944091236	1.8911541857311467	-0.5787054314866551	-0.19037283171702324	1.7503723870926737	-0.5602473259002237	-0.18044474750528242	1.6004117098862198	-0.5828337161850285	-0.2005669105686013	1.5547476662343949	-0.5613950259639753	-0.19179141309045597	1.561004218969962	-0.5970500040850003	-0.1710387914503565	1.5892615365698046	-0.5869399431729275	-0.1778460947381322	2.0401239597898497	-0.5318974963990185	-0.2001613504263717	2.1079683562793177	-0.5177045955423983	-0.18954511123133425	2.036792754369077	-0.43745820731942453	-0.19131454860995112	1.956435179039053	-0.4038175394944375	-0.20663634471988301	1.888937034020383	-0.3693778790846934	-0.16263406386235993	2.0453779520290754	-0.6228227822321727	-0.15727830082536623	1.9642007621449056	-0.6436552976823692	-0.17482432076849316	1.8887067333039382	-0.6278120567880342
92	3.066666666666667	-0.18414812987368903	1.8885525225871982	-0.5241758150581523	-0.19273238406044818	1.8853443623673114	-0.4612771901839548	-0.18867314969470225	1.7453471936701264	-0.4597388690091708	-0.18152009605394812	1.6058413089377792	-0.4720225461016256	-0.21654226114110647	1.5690231365049567	-0.43443716006742294	-0.20848684485081734	1.574508238178289	-0.41193043575908866	-0.1777646279657537	1.5968228242679345	-0.4841606385059063	-0.17346111281690807	1.890273615728944	-0.5832724857717214	-0.18907421115440506	1.7491685582161252	-0.5658041353451809	-0.17636747933649646	1.599314423293163	-0.5916324793763404	-0.19508499229741524	1.557900920107618	-0.5718831177829721	-0.1882605986604561	1.564034980467762	-0.6054094506456792	-0.1693931902799565	1.5899153891718352	-0.593318519090526	-0.17872178254381735	2.038829344041903	-0.5346244651531139	-0.1991365596170597	2.1080667676007927	-0.5228594405685508	-0.1914440256420414	2.0346281403099575	-0.44325898680380743	-0.19402774679829404	1.9575862718322938	-0.40492336512943766	-0.20840113728316098	1.8901327137722168	-0.36738429143152906	-0.16230401911147826	2.0456788588350086	-0.6311745094331995	-0.15600108351190378	1.9668913948683444	-0.6492867631658242	-0.1757848497083656	1.8903496205555057	-0.6313269870128325
